<svg width="129" height="129" viewBox="0 0 129 129" fill="none" xmlns="http://www.w3.org/2000/svg">
<path fill-rule="evenodd" clip-rule="evenodd" d="M64.5649 2.45117C65.2774 2.45117 65.8549 3.02872 65.8549 3.74117V19.8662C65.8549 20.5786 65.2774 21.1562 64.5649 21.1562C63.8525 21.1562 63.2749 20.5786 63.2749 19.8662V3.74117C63.2749 3.02872 63.8525 2.45117 64.5649 2.45117Z" fill="#1E524F"/>
<path fill-rule="evenodd" clip-rule="evenodd" d="M45.7212 8.7626C46.225 8.25882 47.0418 8.25882 47.5456 8.7626L58.8975 20.1146C59.4013 20.6184 59.4013 21.4352 58.8975 21.9389C58.3938 22.4427 57.577 22.4427 57.0732 21.9389L45.7212 10.5869C45.2174 10.0832 45.2174 9.26637 45.7212 8.7626Z" fill="#1E524F"/>
<path fill-rule="evenodd" clip-rule="evenodd" d="M83.5367 8.7626C84.0405 9.26637 84.0405 10.0832 83.5367 10.5869L72.1847 21.9389C71.6809 22.4427 70.8642 22.4427 70.3604 21.9389C69.8566 21.4352 69.8566 20.6184 70.3604 20.1146L81.7124 8.7626C82.2161 8.25882 83.0329 8.25882 83.5367 8.7626Z" fill="#1E524F"/>
<path d="M64.5644 53.1472C72.2589 53.1472 78.4964 46.9096 78.4964 39.2152C78.4964 31.5208 72.2589 25.2832 64.5644 25.2832C56.87 25.2832 50.6324 31.5208 50.6324 39.2152C50.6324 46.9096 56.87 53.1472 64.5644 53.1472Z" fill="white"/>
<path fill-rule="evenodd" clip-rule="evenodd" d="M64.5645 26.5732C57.5825 26.5732 51.9225 32.2332 51.9225 39.2152C51.9225 46.1971 57.5825 51.8572 64.5645 51.8572C71.5465 51.8572 77.2065 46.1971 77.2065 39.2152C77.2065 32.2332 71.5465 26.5732 64.5645 26.5732ZM49.3425 39.2152C49.3425 30.8083 56.1576 23.9932 64.5645 23.9932C72.9714 23.9932 79.7865 30.8083 79.7865 39.2152C79.7865 47.622 72.9714 54.4372 64.5645 54.4372C56.1576 54.4372 49.3425 47.622 49.3425 39.2152Z" fill="#1E524F"/>
<path fill-rule="evenodd" clip-rule="evenodd" d="M72.3196 33.4073C72.8201 33.9143 72.8147 34.7311 72.3077 35.2315L62.3747 45.0355C61.8762 45.5275 61.0763 45.5319 60.5725 45.0455L56.8315 41.4335C56.3189 40.9386 56.3046 40.1219 56.7995 39.6094C57.2943 39.0969 58.111 39.0825 58.6235 39.5774L61.4586 42.3147L70.4953 33.3953C71.0024 32.8949 71.8191 32.9002 72.3196 33.4073Z" fill="#F1595C"/>
<path fill-rule="evenodd" clip-rule="evenodd" d="M120.044 49.3974C120.547 49.9011 120.547 50.7179 120.044 51.2217L114.239 57.0267C113.735 57.5305 112.918 57.5305 112.414 57.0267L110.221 54.8337C109.717 54.3299 109.717 53.5131 110.221 53.0094C110.725 52.5056 111.542 52.5056 112.046 53.0094L113.326 54.2902L118.219 49.3974C118.723 48.8936 119.54 48.8936 120.044 49.3974Z" fill="#1E524F"/>
<path fill-rule="evenodd" clip-rule="evenodd" d="M114.488 42.4413C108.621 42.4413 103.781 47.2818 103.781 53.1483C103.781 55.7873 104.818 58.327 106.429 60.1679C106.898 60.704 106.843 61.519 106.307 61.9881C105.771 62.4573 104.956 62.403 104.487 61.8668C102.486 59.5796 101.201 56.4434 101.201 53.1483C101.201 45.8569 107.196 39.8613 114.488 39.8613C115.2 39.8613 115.778 40.4389 115.778 41.1513C115.778 41.8638 115.2 42.4413 114.488 42.4413Z" fill="#1E524F"/>
<path fill-rule="evenodd" clip-rule="evenodd" d="M118.744 41.8798C119.054 41.2385 119.826 40.9701 120.467 41.2805C124.901 43.426 127.903 47.9988 127.903 53.1487C127.903 60.4401 121.908 66.4357 114.616 66.4357C112.465 66.4357 110.334 65.8658 108.621 65.0095C107.984 64.6909 107.726 63.916 108.045 63.2788C108.363 62.6415 109.138 62.3832 109.775 62.7019C111.159 63.3936 112.897 63.8557 114.616 63.8557C120.483 63.8557 125.323 59.0152 125.323 53.1487C125.323 49.0105 122.907 45.3273 119.343 43.6029C118.702 43.2926 118.434 42.5211 118.744 41.8798Z" fill="#1E524F"/>
<path fill-rule="evenodd" clip-rule="evenodd" d="M113.189 38.3046C113.692 37.8008 114.509 37.8008 115.013 38.3046L116.948 40.2396C117.44 40.7319 117.453 41.5261 116.977 42.034L115.042 44.098C114.555 44.6178 113.738 44.6441 113.219 44.1569C112.699 43.6696 112.672 42.8532 113.16 42.3335L114.24 41.1807L113.189 40.1289C112.685 39.6251 112.685 38.8084 113.189 38.3046Z" fill="#1E524F"/>
<path fill-rule="evenodd" clip-rule="evenodd" d="M111.952 61.9776C112.206 62.6434 111.872 63.3887 111.206 63.6423L109.722 64.2074L110.267 65.5697C110.532 66.2312 110.21 66.982 109.549 67.2466C108.887 67.5112 108.136 67.1894 107.872 66.5279L106.84 63.9479C106.711 63.6268 106.717 63.2676 106.856 62.9509C106.995 62.6342 107.255 62.3865 107.578 62.2633L110.287 61.2313C110.953 60.9777 111.698 61.3118 111.952 61.9776Z" fill="#1E524F"/>
<path fill-rule="evenodd" clip-rule="evenodd" d="M19.811 49.3974C20.3148 49.9011 20.3148 50.7179 19.811 51.2217L14.006 57.0267C13.7593 57.2734 13.4232 57.4097 13.0743 57.4044C12.7255 57.3991 12.3936 57.2527 12.1545 56.9987L10.0905 54.8057C9.60221 54.2869 9.62695 53.4704 10.1458 52.9822C10.6646 52.4939 11.481 52.5186 11.9692 53.0374L13.1219 54.2621L17.9867 49.3974C18.4905 48.8936 19.3073 48.8936 19.811 49.3974Z" fill="#1E524F"/>
<path fill-rule="evenodd" clip-rule="evenodd" d="M14.3837 42.4413C8.51713 42.4413 3.67668 47.2818 3.67668 53.1483C3.67668 55.7873 4.71378 58.327 6.3245 60.1679C6.79365 60.704 6.73932 61.519 6.20315 61.9881C5.66698 62.4573 4.85201 62.403 4.38286 61.8668C2.38158 59.5796 1.09668 56.4433 1.09668 53.1483C1.09668 45.8569 7.09223 39.8613 14.3837 39.8613C15.0961 39.8613 15.6737 40.4389 15.6737 41.1513C15.6737 41.8638 15.0961 42.4413 14.3837 42.4413Z" fill="#1E524F"/>
<path fill-rule="evenodd" clip-rule="evenodd" d="M18.5115 41.8798C18.8218 41.2385 19.5933 40.9701 20.2346 41.2805C24.6687 43.426 27.6707 47.9988 27.6707 53.1487C27.6707 60.4401 21.6751 66.4357 14.3837 66.4357C12.2328 66.4357 10.1014 65.8658 8.38879 65.0095C7.75156 64.6909 7.49327 63.916 7.81189 63.2788C8.1305 62.6415 8.90537 62.3832 9.5426 62.7019C10.926 63.3936 12.6646 63.8557 14.3837 63.8557C20.2503 63.8557 25.0907 59.0152 25.0907 53.1487C25.0907 49.0105 22.6747 45.3273 19.1108 43.6029C18.4695 43.2926 18.2012 42.5211 18.5115 41.8798Z" fill="#1E524F"/>
<path fill-rule="evenodd" clip-rule="evenodd" d="M12.9264 38.3345C13.4137 37.8147 14.23 37.7884 14.7498 38.2757L16.8138 40.2107C17.0687 40.4496 17.2157 40.7817 17.2214 41.131C17.227 41.4803 17.0907 41.8169 16.8437 42.0639L14.7797 44.1279C14.2759 44.6317 13.4591 44.6317 12.9554 44.1279C12.4516 43.6242 12.4516 42.8074 12.9554 42.3036L14.0773 41.1817L12.9852 40.1579C12.4655 39.6706 12.4391 38.8542 12.9264 38.3345Z" fill="#1E524F"/>
<path d="M93.8477 125.258H35.2817C32.0567 125.258 29.4767 122.678 29.4767 119.453V64.4993C29.4767 61.2743 32.0567 58.6943 35.2817 58.6943H93.8477C97.0727 58.6943 99.6527 61.2743 99.6527 64.4993V119.453C99.6527 122.678 97.0727 125.258 93.8477 125.258Z" fill="white"/>
<path fill-rule="evenodd" clip-rule="evenodd" d="M35.2816 59.9853C32.7691 59.9853 30.7666 61.9877 30.7666 64.5003V119.454C30.7666 121.967 32.7691 123.969 35.2816 123.969H93.8476C96.3602 123.969 98.3627 121.967 98.3627 119.454V64.5003C98.3627 61.9877 96.3602 59.9853 93.8476 59.9853H35.2816ZM28.1866 64.5003C28.1866 60.5628 31.3442 57.4053 35.2816 57.4053H93.8476C97.7851 57.4053 100.943 60.5628 100.943 64.5003V119.454C100.943 123.392 97.7851 126.549 93.8476 126.549H35.2816C31.3442 126.549 28.1866 123.392 28.1866 119.454V64.5003Z" fill="#1E524F"/>
<path d="M39.7964 119.841H35.5394C35.0234 119.841 34.5074 119.325 34.5074 118.809V87.4617C34.5074 86.9457 35.0234 86.4297 35.5394 86.4297H39.7964C40.3124 86.4297 40.8284 86.9457 40.8284 87.4617V118.938C40.8284 119.454 40.4414 119.841 39.7964 119.841Z" fill="#8ADBC8"/>
<path fill-rule="evenodd" clip-rule="evenodd" d="M35.7975 87.7196V118.551H39.5385V87.7196H35.7975ZM33.9179 85.84C34.2924 85.4654 34.862 85.1396 35.5395 85.1396H39.7965C40.4741 85.1396 41.0437 85.4654 41.4182 85.84C41.7927 86.2145 42.1185 86.7841 42.1185 87.4617V118.938C42.1185 119.533 41.8874 120.114 41.4222 120.537C40.9643 120.953 40.3766 121.131 39.7965 121.131H35.5395C34.862 121.131 34.2924 120.805 33.9179 120.43C33.5433 120.056 33.2175 119.486 33.2175 118.809V87.4617C33.2175 86.7841 33.5433 86.2145 33.9179 85.84Z" fill="#1E524F"/>
<path d="M51.1489 119.842H46.8919C46.3759 119.842 45.8599 119.326 45.8599 118.81V93.0095C45.8599 92.4935 46.3759 91.9775 46.8919 91.9775H51.1489C51.6649 91.9775 52.1809 92.4935 52.1809 93.0095V118.939C52.1809 119.455 51.6649 119.842 51.1489 119.842Z" fill="#8ADBC8"/>
<path fill-rule="evenodd" clip-rule="evenodd" d="M47.1498 93.2675V118.552H50.8908V93.2675H47.1498ZM45.2702 91.3878C45.6447 91.0133 46.2143 90.6875 46.8918 90.6875H51.1488C51.8264 90.6875 52.3959 91.0133 52.7705 91.3878C53.145 91.7624 53.4708 92.3319 53.4708 93.0095V118.939C53.4708 119.653 53.1104 120.219 52.6842 120.575C52.2646 120.924 51.716 121.132 51.1488 121.132H46.8918C46.2143 121.132 45.6447 120.806 45.2702 120.431C44.8956 120.057 44.5698 119.487 44.5698 118.809V93.0095C44.5698 92.3319 44.8956 91.7624 45.2702 91.3878Z" fill="#1E524F"/>
<path d="M62.5007 119.841H58.2437C57.7277 119.841 57.2117 119.325 57.2117 118.809V89.3972C57.2117 88.8812 57.7277 88.3652 58.2437 88.3652H62.5007C63.0167 88.3652 63.5327 88.8812 63.5327 89.3972V118.809C63.4037 119.454 63.0167 119.841 62.5007 119.841Z" fill="#8ADBC8"/>
<path fill-rule="evenodd" clip-rule="evenodd" d="M58.5016 89.6552V118.551H62.2426V89.6552H58.5016ZM56.622 87.7755C56.9965 87.401 57.5661 87.0752 58.2436 87.0752H62.5006C63.1782 87.0752 63.7478 87.401 64.1223 87.7755C64.4968 88.1501 64.8226 88.7196 64.8226 89.3972V118.937L64.7976 119.062C64.5936 120.082 63.8375 121.131 62.5006 121.131H58.2436C57.5661 121.131 56.9965 120.805 56.622 120.431C56.2474 120.056 55.9216 119.487 55.9216 118.809V89.3972C55.9216 88.7197 56.2474 88.1501 56.622 87.7755Z" fill="#1E524F"/>
<path fill-rule="evenodd" clip-rule="evenodd" d="M43.5375 69.0146C43.5375 68.3022 44.115 67.7246 44.8275 67.7246H57.2115C57.9239 67.7246 58.5015 68.3022 58.5015 69.0146C58.5015 69.7271 57.9239 70.3046 57.2115 70.3046H44.8275C44.115 70.3046 43.5375 69.7271 43.5375 69.0146Z" fill="#1E524F"/>
<path fill-rule="evenodd" clip-rule="evenodd" d="M33.9916 69.0146C33.9916 68.3022 34.5691 67.7246 35.2816 67.7246H39.7966C40.509 67.7246 41.0866 68.3022 41.0866 69.0146C41.0866 69.7271 40.509 70.3046 39.7966 70.3046H35.2816C34.5691 70.3046 33.9916 69.7271 33.9916 69.0146Z" fill="#1E524F"/>
<path fill-rule="evenodd" clip-rule="evenodd" d="M43.9249 77.6591C43.9249 76.9467 44.5025 76.3691 45.2149 76.3691H57.5989C58.3114 76.3691 58.8889 76.9467 58.8889 77.6591C58.8889 78.3716 58.3114 78.9492 57.5989 78.9492H45.2149C44.5025 78.9492 43.9249 78.3716 43.9249 77.6591Z" fill="#1E524F"/>
<path fill-rule="evenodd" clip-rule="evenodd" d="M33.9916 77.6591C33.9916 76.9467 34.5691 76.3691 35.2816 76.3691H39.7966C40.509 76.3691 41.0866 76.9467 41.0866 77.6591C41.0866 78.3716 40.509 78.9492 39.7966 78.9492H35.2816C34.5691 78.9492 33.9916 78.3716 33.9916 77.6591Z" fill="#1E524F"/>
<path fill-rule="evenodd" clip-rule="evenodd" d="M47.9233 73.4013C47.9233 72.6889 48.5009 72.1113 49.2133 72.1113H57.5983C58.3108 72.1113 58.8883 72.6889 58.8883 73.4013C58.8883 74.1138 58.3108 74.6913 57.5983 74.6913H49.2133C48.5009 74.6913 47.9233 74.1138 47.9233 73.4013Z" fill="#1E524F"/>
<path fill-rule="evenodd" clip-rule="evenodd" d="M33.9916 73.4013C33.9916 72.6889 34.5691 72.1113 35.2816 72.1113H44.6986C45.411 72.1113 45.9886 72.6889 45.9886 73.4013C45.9886 74.1138 45.411 74.6913 44.6986 74.6913H35.2816C34.5691 74.6913 33.9916 74.1138 33.9916 73.4013Z" fill="#1E524F"/>
<path d="M80.9474 104.491H74.8844C74.2394 104.491 73.7234 103.975 73.7234 103.33V98.4276C73.7234 97.7826 74.2394 97.2666 74.8844 97.2666H80.9474C81.5924 97.2666 82.1084 97.7826 82.1084 98.4276V103.33C82.1084 103.975 81.5924 104.491 80.9474 104.491Z" fill="white"/>
<path fill-rule="evenodd" clip-rule="evenodd" d="M75.0133 98.5566V103.201H80.8183V98.5566H75.0133ZM72.4333 98.4276C72.4333 97.0701 73.5269 95.9766 74.8844 95.9766H80.9473C82.3048 95.9766 83.3983 97.0701 83.3983 98.4276V103.33C83.3983 104.687 82.3048 105.781 80.9473 105.781H74.8844C73.5269 105.781 72.4333 104.687 72.4333 103.33V98.4276Z" fill="#1E524F"/>
<path d="M93.3315 104.491H87.2685C86.6235 104.491 86.1075 103.975 86.1075 103.33V98.4276C86.1075 97.7826 86.6235 97.2666 87.2685 97.2666H93.3315C93.9765 97.2666 94.4925 97.7826 94.4925 98.4276V103.33C94.4925 103.975 93.9765 104.491 93.3315 104.491Z" fill="white"/>
<path fill-rule="evenodd" clip-rule="evenodd" d="M87.3975 98.5566V103.201H93.2025V98.5566H87.3975ZM84.8175 98.4276C84.8175 97.0701 85.9111 95.9766 87.2685 95.9766H93.3315C94.6889 95.9766 95.7825 97.0701 95.7825 98.4276V103.33C95.7825 104.687 94.6889 105.781 93.3315 105.781H87.2685C85.9111 105.781 84.8175 104.687 84.8175 103.33V98.4276Z" fill="#1E524F"/>
<path d="M80.9474 116.745H74.8844C74.2394 116.745 73.7234 116.229 73.7234 115.584V110.682C73.7234 110.037 74.2394 109.521 74.8844 109.521H80.9474C81.5924 109.521 82.1084 110.037 82.1084 110.682V115.584C82.1084 116.229 81.5924 116.745 80.9474 116.745Z" fill="white"/>
<path fill-rule="evenodd" clip-rule="evenodd" d="M75.0133 110.811V115.455H80.8183V110.811H75.0133ZM72.4333 110.682C72.4333 109.325 73.5269 108.231 74.8844 108.231H80.9473C82.3048 108.231 83.3983 109.325 83.3983 110.682V115.584C83.3983 116.942 82.3048 118.035 80.9473 118.035H74.8844C73.5269 118.035 72.4333 116.942 72.4333 115.584V110.682Z" fill="#1E524F"/>
<path d="M93.3315 116.745H87.2685C86.6235 116.745 86.1075 116.229 86.1075 115.584V110.682C86.1075 110.037 86.6235 109.521 87.2685 109.521H93.3315C93.9765 109.521 94.4925 110.037 94.4925 110.682V115.584C94.4925 116.229 93.9765 116.745 93.3315 116.745Z" fill="white"/>
<path fill-rule="evenodd" clip-rule="evenodd" d="M87.3975 110.811V115.455H93.2025V110.811H87.3975ZM84.8175 110.682C84.8175 109.325 85.9111 108.231 87.2685 108.231H93.3315C94.6889 108.231 95.7825 109.325 95.7825 110.682V115.584C95.7825 116.942 94.6889 118.035 93.3315 118.035H87.2685C85.9111 118.035 84.8175 116.942 84.8175 115.584V110.682Z" fill="#1E524F"/>
<path d="M89.9777 77.9156L82.2377 85.6556L74.6267 77.7866C70.8857 73.6586 74.3687 68.4986 79.0127 69.7886C80.9477 70.3046 82.2377 73.0136 82.2377 73.0136C82.2377 73.0136 82.8827 69.6596 86.4947 69.7886C90.8807 70.1756 92.6867 75.2066 89.9777 77.9156Z" fill="#F1595C"/>
<path fill-rule="evenodd" clip-rule="evenodd" d="M75.5691 76.9055L82.253 83.8159L89.0655 77.0034C90.8983 75.1705 89.82 71.4013 86.415 71.0767C85.1167 71.0401 84.4419 71.5922 84.046 72.1235C83.8304 72.413 83.6894 72.7129 83.603 72.9436C83.5606 73.0571 83.5333 73.1485 83.5178 73.206C83.5101 73.2345 83.5054 73.2541 83.5033 73.2633C83.5029 73.2653 83.5026 73.2668 83.5023 73.2677L83.5028 73.2653L83.5035 73.2618L83.5039 73.2597M82.2376 73.0136C83.4023 72.459 83.4022 72.4587 83.402 72.4584L83.401 72.4562L83.3991 72.4523L83.394 72.4417L83.3779 72.4091C83.3647 72.3823 83.3462 72.3459 83.3229 72.3009C83.2761 72.2111 83.2092 72.0867 83.1232 71.9376C82.9523 71.6413 82.7007 71.2385 82.3774 70.8135C82.2881 70.6961 82.1897 70.5723 82.0825 70.4452C82.924 69.388 84.3434 68.4209 86.5407 68.4994C86.5631 68.5002 86.5856 68.5016 86.608 68.5036C91.9483 68.9748 94.4689 75.2487 90.8898 78.8278L83.1498 86.5678C82.9052 86.8123 82.5727 86.9484 82.2269 86.9455C81.881 86.9427 81.5508 86.801 81.3104 86.5524L73.6994 78.6834C73.6897 78.6734 73.6801 78.6632 73.6707 78.6529C71.4517 76.2042 71.2689 73.2662 72.5681 71.0937C73.8506 68.9493 76.4755 67.7477 79.3518 68.544C80.5405 68.8632 81.4609 69.7085 82.0825 70.4452M82.2376 73.0136C81.0729 73.5682 81.0731 73.5685 81.0732 73.5688L81.0674 73.557C81.0608 73.5438 81.0496 73.5216 81.034 73.4915C81.0026 73.4311 80.9536 73.3399 80.8884 73.2269C80.757 72.9991 80.5651 72.6925 80.3241 72.3757C79.8033 71.6912 79.218 71.1784 78.6802 71.035L78.6673 71.0316C76.902 70.5412 75.4663 71.2744 74.7824 72.418C74.1163 73.5317 74.0609 75.2309 75.5691 76.9055" fill="#1E524F"/>
</svg>
