<svg width="129" height="129" viewBox="0 0 129 129" fill="none" xmlns="http://www.w3.org/2000/svg">
<path d="M49.2079 62.9512L48.8209 85.1392L74.4919 91.8472L84.0379 79.2052L83.1349 65.6602L49.2079 62.9512Z" fill="#F9D1C5"/>
<path d="M23.0213 42.699C31.8556 42.699 39.0173 35.5374 39.0173 26.703C39.0173 17.8687 31.8556 10.707 23.0213 10.707C14.1869 10.707 7.02527 17.8687 7.02527 26.703C7.02527 35.5374 14.1869 42.699 23.0213 42.699Z" fill="white"/>
<path fill-rule="evenodd" clip-rule="evenodd" d="M16.0371 10.8905C17.0554 10.4416 18.1312 10.0852 19.2562 9.83366C20.3813 9.58212 21.5064 9.44637 22.6189 9.41892C23.3312 9.40135 23.9228 9.96449 23.9403 10.6767C23.9579 11.3889 23.3948 11.9806 22.6825 11.9981C21.7372 12.0214 20.7793 12.1368 19.8192 12.3515C18.8591 12.5662 17.9433 12.8697 17.078 13.2512C16.4261 13.5387 15.6647 13.2432 15.3772 12.5913C15.0898 11.9394 15.3853 11.178 16.0371 10.8905ZM27.5963 11.3162C27.854 10.6519 28.6013 10.3223 29.2655 10.5799C31.3799 11.4 33.317 12.6291 34.9594 14.1929C35.4754 14.6842 35.4954 15.5007 35.0042 16.0167C34.5129 16.5327 33.6964 16.5527 33.1804 16.0615C31.7822 14.7302 30.1326 13.6834 28.3326 12.9853C27.6684 12.7277 27.3387 11.9804 27.5963 11.3162ZM12.3417 14.7269C12.8577 15.2182 12.8777 16.0348 12.3864 16.5507C11.0552 17.9489 10.0084 19.5986 9.31033 21.3985C9.05271 22.0628 8.3054 22.3924 7.64117 22.1348C6.97693 21.8772 6.6473 21.1298 6.90492 20.4656C7.72496 18.3512 8.95413 16.4141 10.5179 14.7717C11.0092 14.2557 11.8257 14.2357 12.3417 14.7269ZM37.1398 19.0523C37.7917 18.7648 38.5532 19.0603 38.8406 19.7122C39.2896 20.7304 39.6459 21.8062 39.8975 22.9313C40.149 24.0563 40.2848 25.1815 40.3122 26.2939C40.3298 27.0062 39.7666 27.5978 39.0544 27.6154C38.3422 27.6329 37.7506 27.0698 37.733 26.3576C37.7097 25.4122 37.5943 24.4543 37.3796 23.4942C37.165 22.5341 36.8614 21.6183 36.4799 20.753C36.1925 20.1012 36.4879 19.3397 37.1398 19.0523ZM7.0017 25.7908C7.71393 25.7732 8.30554 26.3363 8.32311 27.0486C8.34643 27.9939 8.4618 28.9518 8.67647 29.9119C8.89113 30.872 9.1947 31.7878 9.57622 32.6531C9.86365 33.305 9.5682 34.0665 8.91631 34.3539C8.26442 34.6413 7.50295 34.3459 7.21552 33.694C6.76655 32.6757 6.41019 31.5999 6.15865 30.4749C5.9071 29.3499 5.77135 28.2247 5.74391 27.1122C5.72634 26.4 6.28947 25.8084 7.0017 25.7908ZM11.0519 37.3894C11.5432 36.8734 12.3597 36.8534 12.8757 37.3447C14.2739 38.6759 15.9236 39.7227 17.7235 40.4208C18.3877 40.6784 18.7174 41.4257 18.4598 42.09C18.2021 42.7542 17.4548 43.0838 16.7906 42.8262C14.6762 42.0062 12.7391 40.777 11.0967 39.2132C10.5807 38.7219 10.5607 37.9054 11.0519 37.3894ZM38.4149 31.2714C39.0792 31.529 39.4088 32.2763 39.1512 32.9405C38.3311 35.0549 37.102 36.992 35.5382 38.6345C35.0469 39.1504 34.2304 39.1705 33.7144 38.6792C33.1984 38.1879 33.1784 37.3714 33.6697 36.8554C35.0009 35.4572 36.0477 33.8076 36.7458 32.0076C37.0034 31.3434 37.7507 31.0137 38.4149 31.2714ZM22.1158 42.7294C22.0982 42.0172 22.6613 41.4256 23.3736 41.408C24.3189 41.3847 25.2768 41.2693 26.2369 41.0547C27.197 40.84 28.1128 40.5364 28.9781 40.1549C29.63 39.8675 30.3914 40.1629 30.6789 40.8148C30.9663 41.4667 30.6709 42.2282 30.019 42.5156C29.0007 42.9646 27.9249 43.3209 26.7999 43.5725C25.6748 43.824 24.5497 43.9598 23.4372 43.9872C22.725 44.0048 22.1333 43.4417 22.1158 42.7294Z" fill="#1E524F"/>
<path d="M64.0429 34.8299C72.8772 34.8299 80.0389 27.6682 80.0389 18.8339C80.0389 9.99954 72.8772 2.83789 64.0429 2.83789C55.2085 2.83789 48.0469 9.99954 48.0469 18.8339C48.0469 27.6682 55.2085 34.8299 64.0429 34.8299Z" fill="white"/>
<path fill-rule="evenodd" clip-rule="evenodd" d="M60.6707 1.87685C61.7624 1.66088 62.89 1.54785 64.0428 1.54785C65.1956 1.54785 66.3233 1.66088 67.415 1.87685C68.1139 2.01511 68.5684 2.69377 68.4301 3.39267C68.2919 4.09157 67.6132 4.54606 66.9143 4.40779C65.9866 4.22427 65.0266 4.12785 64.0428 4.12785C63.059 4.12785 62.099 4.22427 61.1714 4.40779C60.4725 4.54606 59.7938 4.09157 59.6556 3.39267C59.5173 2.69377 59.9718 2.01511 60.6707 1.87685ZM56.2272 4.81448C56.6235 5.4065 56.4649 6.20773 55.8729 6.60408C54.2686 7.67811 52.8871 9.05961 51.8131 10.6639C51.4167 11.2559 50.6155 11.4145 50.0235 11.0182C49.4314 10.6218 49.2728 9.82059 49.6692 9.22857C50.9308 7.34406 52.5531 5.72183 54.4376 4.46018C55.0296 4.06383 55.8308 4.22246 56.2272 4.81448ZM71.8585 4.81448C72.2549 4.22246 73.0561 4.06383 73.6481 4.46018C75.5326 5.72183 77.1549 7.34406 78.4165 9.22857C78.8129 9.82059 78.6542 10.6218 78.0622 11.0182C77.4702 11.4145 76.669 11.2559 76.2726 10.6639C75.1986 9.05961 73.8171 7.67811 72.2128 6.60408C71.6208 6.20773 71.4622 5.4065 71.8585 4.81448ZM79.484 14.4466C80.1829 14.3083 80.8616 14.7628 80.9998 15.4617C81.2158 16.5534 81.3288 17.681 81.3288 18.8338C81.3288 19.9867 81.2158 21.1143 80.9998 22.206C80.8616 22.9049 80.1829 23.3594 79.484 23.2211C78.7851 23.0829 78.3306 22.4042 78.4689 21.7053C78.6524 20.7776 78.7488 19.8176 78.7488 18.8338C78.7488 17.8501 78.6524 16.8901 78.4689 15.9624C78.3306 15.2635 78.7851 14.5848 79.484 14.4466ZM48.6017 14.4466C49.3006 14.5848 49.755 15.2635 49.6168 15.9624C49.4333 16.8901 49.3368 17.8501 49.3368 18.8338C49.3368 19.8176 49.4333 20.7776 49.6168 21.7053C49.755 22.4042 49.3006 23.0829 48.6017 23.2211C47.9028 23.3594 47.2241 22.9049 47.0858 22.206C46.8699 21.1143 46.7568 19.9867 46.7568 18.8338C46.7568 17.681 46.8699 16.5534 47.0858 15.4617C47.2241 14.7628 47.9028 14.3083 48.6017 14.4466ZM50.0235 26.6495C50.6155 26.2532 51.4167 26.4118 51.8131 27.0038C52.8871 28.6081 54.2686 29.9896 55.8729 31.0636C56.4649 31.46 56.6235 32.2612 56.2272 32.8532C55.8308 33.4452 55.0296 33.6039 54.4376 33.2075C52.5531 31.9459 50.9308 30.3236 49.6692 28.4391C49.2728 27.8471 49.4314 27.0459 50.0235 26.6495ZM78.0622 26.6495C78.6542 27.0459 78.8129 27.8471 78.4165 28.4391C77.1549 30.3236 75.5326 31.9459 73.6481 33.2075C73.0561 33.6039 72.2549 33.4452 71.8585 32.8532C71.4622 32.2612 71.6208 31.46 72.2128 31.0636C73.8171 29.9896 75.1986 28.6081 76.2726 27.0038C76.669 26.4118 77.4702 26.2532 78.0622 26.6495ZM59.6556 34.275C59.7938 33.5761 60.4725 33.1216 61.1714 33.2599C62.099 33.4434 63.059 33.5398 64.0428 33.5398C65.0266 33.5398 65.9866 33.4434 66.9143 33.2599C67.6132 33.1216 68.2919 33.5761 68.4301 34.275C68.5684 34.9739 68.1139 35.6526 67.415 35.7909C66.3233 36.0068 65.1956 36.1198 64.0428 36.1198C62.89 36.1198 61.7624 36.0068 60.6707 35.7909C59.9718 35.6526 59.5173 34.9739 59.6556 34.275Z" fill="#1E524F"/>
<path d="M106.226 42.699C115.06 42.699 122.222 35.5374 122.222 26.703C122.222 17.8687 115.06 10.707 106.226 10.707C97.3914 10.707 90.2297 17.8687 90.2297 26.703C90.2297 35.5374 97.3914 42.699 106.226 42.699Z" fill="white"/>
<path fill-rule="evenodd" clip-rule="evenodd" d="M99.5666 10.7476C100.594 10.3199 101.677 9.98595 102.807 9.75781C103.937 9.52967 105.065 9.41729 106.177 9.41294C106.89 9.41015 107.47 9.98543 107.472 10.6979C107.475 11.4103 106.9 11.9901 106.187 11.9929C105.242 11.9966 104.282 12.092 103.317 12.2867C102.353 12.4814 101.431 12.7659 100.558 13.1294C99.9006 13.4032 99.1454 13.092 98.8716 12.4343C98.5977 11.7766 98.9089 11.0215 99.5666 10.7476ZM95.7924 14.5065C96.2981 15.0083 96.3012 15.8251 95.7993 16.3308C94.4394 17.701 93.3586 19.3286 92.6233 21.1136C92.352 21.7723 91.598 22.0864 90.9393 21.8151C90.2805 21.5437 89.9665 20.7897 90.2378 20.131C91.1016 18.0341 92.3706 16.123 93.9682 14.5134C94.47 14.0077 95.2868 14.0046 95.7924 14.5065ZM111.114 11.413C111.386 10.7543 112.14 10.4403 112.798 10.7116C114.895 11.5753 116.806 12.8444 118.416 14.4419C118.922 14.9438 118.925 15.7605 118.423 16.2662C117.921 16.7718 117.104 16.7749 116.599 16.2731C115.228 14.9131 113.601 13.8324 111.816 13.0971C111.157 12.8257 110.843 12.0718 111.114 11.413ZM120.495 19.3453C121.153 19.0715 121.908 19.3827 122.182 20.0404C122.609 21.0677 122.943 22.1507 123.172 23.2806C123.4 24.4106 123.512 25.5383 123.516 26.6511C123.519 27.3636 122.944 27.9434 122.231 27.9462C121.519 27.9489 120.939 27.3737 120.936 26.6612C120.933 25.7156 120.837 24.7555 120.643 23.7912C120.448 22.8269 120.163 21.905 119.8 21.032C119.526 20.3743 119.837 19.6192 120.495 19.3453ZM90.2241 25.4569C90.9365 25.4542 91.5163 26.0294 91.5191 26.7419C91.5228 27.6875 91.6183 28.6475 91.813 29.6119C92.0077 30.5762 92.2922 31.4981 92.6556 32.3711C92.9295 33.0288 92.6183 33.7839 91.9606 34.0578C91.3029 34.3316 90.5477 34.0204 90.2739 33.3627C89.8462 32.3354 89.5122 31.2524 89.2841 30.1224C89.0559 28.9925 88.9435 27.8648 88.9392 26.752C88.9364 26.0395 89.5117 25.4597 90.2241 25.4569ZM94.0327 37.1369C94.5346 36.6312 95.3514 36.6282 95.857 37.13C97.2273 38.49 98.8548 39.5707 100.64 40.306C101.299 40.5773 101.613 41.3313 101.341 41.9901C101.07 42.6488 100.316 42.9628 99.6573 42.6915C97.5604 41.8278 95.6492 40.5587 94.0396 38.9612C93.5339 38.4593 93.5309 37.6426 94.0327 37.1369ZM121.516 31.588C122.175 31.8594 122.489 32.6134 122.218 33.2721C121.354 35.369 120.085 37.2801 118.487 38.8897C117.986 39.3954 117.169 39.3985 116.663 38.8966C116.157 38.3947 116.154 37.578 116.656 37.0723C118.016 35.7021 119.097 34.0745 119.832 32.2895C120.104 31.6308 120.858 31.3167 121.516 31.588ZM104.983 42.7052C104.98 41.9928 105.556 41.413 106.268 41.4102C107.214 41.4065 108.174 41.3111 109.138 41.1164C110.102 40.9217 111.024 40.6372 111.897 40.2737C112.555 39.9999 113.31 40.311 113.584 40.9687C113.858 41.6265 113.547 42.3816 112.889 42.6555C111.862 43.0832 110.779 43.4171 109.649 43.6453C108.519 43.8734 107.391 43.9858 106.278 43.9902C105.566 43.9929 104.986 43.4177 104.983 42.7052Z" fill="#1E524F"/>
<path fill-rule="evenodd" clip-rule="evenodd" d="M23.0209 18.3173C18.39 18.3173 14.6359 22.0714 14.6359 26.7023C14.6359 31.3332 18.39 35.0873 23.0209 35.0873C27.6518 35.0873 31.4059 31.3332 31.4059 26.7023C31.4059 22.0714 27.6518 18.3173 23.0209 18.3173ZM12.0559 26.7023C12.0559 20.6465 16.9651 15.7373 23.0209 15.7373C29.0767 15.7373 33.9859 20.6465 33.9859 26.7023C33.9859 32.7581 29.0767 37.6673 23.0209 37.6673C16.9651 37.6673 12.0559 32.7581 12.0559 26.7023Z" fill="#1E524F"/>
<path fill-rule="evenodd" clip-rule="evenodd" d="M96.5509 18.3173C96.5509 17.6049 97.1285 17.0273 97.8409 17.0273H114.482C115.194 17.0273 115.772 17.6049 115.772 18.3173V34.9583C115.772 35.6708 115.194 36.2483 114.482 36.2483H97.8409C97.1285 36.2483 96.5509 35.6708 96.5509 34.9583V18.3173ZM99.1309 19.6073V33.6683H113.192V19.6073H99.1309Z" fill="#1E524F"/>
<path d="M64.043 7.99707L69.074 15.8661L73.976 23.8641H64.043H54.11L59.141 15.8661L64.043 7.99707Z" fill="#F1595C"/>
<path fill-rule="evenodd" clip-rule="evenodd" d="M64.0355 6.70705C64.4783 6.70446 64.8914 6.92912 65.1299 7.30216L70.1609 15.1712L70.1739 15.1919L75.0759 23.1899C75.3199 23.588 75.3298 24.0869 75.1016 24.4943C74.8735 24.9017 74.443 25.154 73.9761 25.154H54.1101C53.6405 25.154 53.2079 24.8988 52.9809 24.4877C52.7538 24.0767 52.7681 23.5747 53.0181 23.1772L58.0461 15.1839L62.9481 7.31495C63.1823 6.93914 63.5927 6.70965 64.0355 6.70705ZM64.0572 10.414L60.233 16.5529L56.4455 22.574H71.6724L67.9806 16.5506L64.0572 10.414Z" fill="#1E524F"/>
<path d="M47.015 65.2742V59.7272C47.015 57.0182 49.208 54.8252 51.917 54.8252C54.626 54.8252 56.819 57.0182 56.819 59.7272V67.3382C56.819 70.0472 54.626 72.2402 51.917 72.2402" fill="#F9D1C5"/>
<path fill-rule="evenodd" clip-rule="evenodd" d="M51.917 56.1152C49.9204 56.1152 48.305 57.7306 48.305 59.7272V65.2742C48.305 65.9866 47.7274 66.5642 47.015 66.5642C46.3025 66.5642 45.725 65.9866 45.725 65.2742V59.7272C45.725 56.3057 48.4955 53.5352 51.917 53.5352C55.3384 53.5352 58.109 56.3057 58.109 59.7272V67.3382C58.109 70.7596 55.3384 73.5302 51.917 73.5302C51.2045 73.5302 50.627 72.9526 50.627 72.2402C50.627 71.5277 51.2045 70.9502 51.917 70.9502C53.9135 70.9502 55.529 69.3347 55.529 67.3382V59.7272C55.529 57.7306 53.9135 56.1152 51.917 56.1152Z" fill="#1E524F"/>
<path d="M61.5921 72.2402C58.8831 72.2402 56.6901 70.0472 56.6901 67.3382V59.7272C56.6901 57.0182 58.8831 54.8252 61.5921 54.8252C64.3011 54.8252 66.4941 57.0182 66.4941 59.7272V67.3382C66.4941 70.0472 64.3011 72.2402 61.5921 72.2402Z" fill="#F9D1C5"/>
<path fill-rule="evenodd" clip-rule="evenodd" d="M61.592 56.1152C59.5955 56.1152 57.98 57.7306 57.98 59.7272V67.3382C57.98 69.3347 59.5955 70.9502 61.592 70.9502C63.5886 70.9502 65.204 69.3347 65.204 67.3382V59.7272C65.204 57.7306 63.5886 56.1152 61.592 56.1152ZM55.4 59.7272C55.4 56.3057 58.1706 53.5352 61.592 53.5352C65.0135 53.5352 67.784 56.3057 67.784 59.7272V67.3382C67.784 70.7596 65.0135 73.5302 61.592 73.5302C58.1706 73.5302 55.4 70.7596 55.4 67.3382V59.7272Z" fill="#1E524F"/>
<path d="M71.3961 72.2384C68.6871 72.2384 66.4941 70.0454 66.4941 67.3364V60.8864C66.4941 58.1774 68.6871 55.9844 71.3961 55.9844C74.1051 55.9844 76.2981 58.1774 76.2981 60.8864V67.3364C76.2981 70.0454 74.1051 72.2384 71.3961 72.2384Z" fill="#F9D1C5"/>
<path fill-rule="evenodd" clip-rule="evenodd" d="M71.3961 57.2743C69.3996 57.2743 67.7841 58.8898 67.7841 60.8863V67.3363C67.7841 69.3329 69.3996 70.9483 71.3961 70.9483C73.3927 70.9483 75.0081 69.3329 75.0081 67.3363V60.8863C75.0081 58.8898 73.3927 57.2743 71.3961 57.2743ZM65.2041 60.8863C65.2041 57.4649 67.9747 54.6943 71.3961 54.6943C74.8176 54.6943 77.5881 57.4649 77.5881 60.8863V67.3363C77.5881 70.7578 74.8176 73.5283 71.3961 73.5283C67.9747 73.5283 65.2041 70.7578 65.2041 67.3363V60.8863Z" fill="#1E524F"/>
<path d="M86.1022 67.3378V87.2038C86.1022 96.4918 84.1672 104.877 75.6532 104.877C67.1392 104.877 59.7862 104.877 59.7862 104.877C51.4012 104.877 40.6942 98.6848 40.6942 84.6238V70.4338C40.6942 65.0158 48.0472 63.2098 50.4982 68.1118C51.5302 70.1758 52.0462 73.1428 51.6592 77.0128C51.6592 77.0128 63.5272 75.7228 66.8812 88.6228" fill="#F9D1C5"/>
<path fill-rule="evenodd" clip-rule="evenodd" d="M49.3444 68.6888C47.5165 65.033 41.9842 66.345 41.9842 70.4339V84.6239C41.9842 91.2948 44.5099 96.0037 47.9521 99.0584C51.4252 102.141 55.8877 103.587 59.7862 103.587V104.877V106.167C55.2997 106.167 50.2161 104.517 46.2395 100.988C42.2319 97.4315 39.4042 92.0139 39.4042 84.6239V70.4339C39.4042 63.6867 48.5779 61.3867 51.652 67.5349C52.6804 69.5917 53.2084 72.3301 53.0498 75.6951C53.2376 75.7012 53.4399 75.711 53.655 75.7259C54.9122 75.8129 56.6313 76.0738 58.4717 76.7749C62.2081 78.1983 66.3373 81.4046 68.1297 88.2982C68.3089 88.9878 67.8953 89.6921 67.2058 89.8713C66.5163 90.0506 65.812 89.637 65.6327 88.9475C64.071 82.9411 60.5892 80.3424 57.5532 79.1858C56.0073 78.5969 54.5498 78.374 53.4769 78.2998C52.9423 78.2628 52.5088 78.2631 52.2149 78.272C52.0682 78.2765 51.9568 78.2831 51.8856 78.2882C51.8501 78.2908 51.8246 78.2929 51.8099 78.2943L51.7963 78.2955L50.2173 78.4672L50.3756 76.8845C50.7463 73.1777 50.2364 70.4728 49.3444 68.6888ZM59.7862 104.877V106.167H75.6532C78.0033 106.167 79.98 105.585 81.5997 104.491C83.2119 103.402 84.3871 101.862 85.2355 100.077C86.9118 96.5498 87.3922 91.8908 87.3922 87.2039V67.3379C87.3922 66.6254 86.8146 66.0479 86.1022 66.0479C85.3897 66.0479 84.8122 66.6254 84.8122 67.3379V87.2039C84.8122 91.8049 84.325 95.9824 82.9053 98.9696C82.2057 100.442 81.3008 101.579 80.1556 102.353C79.018 103.121 77.5601 103.587 75.6532 103.587H59.7875L59.7862 104.877Z" fill="#1E524F"/>
<path fill-rule="evenodd" clip-rule="evenodd" d="M42.1038 44.2382C42.6076 43.7344 43.4243 43.7344 43.9281 44.2382L50.1201 50.4302C50.6239 50.934 50.6239 51.7507 50.1201 52.2545C49.6163 52.7583 48.7996 52.7583 48.2958 52.2545L42.1038 46.0625C41.6 45.5587 41.6 44.742 42.1038 44.2382Z" fill="#1E524F"/>
<path fill-rule="evenodd" clip-rule="evenodd" d="M87.1347 44.6154C87.6432 45.1145 87.6508 45.9312 87.1518 46.4397L80.3148 53.4057C79.8157 53.9142 78.999 53.9218 78.4905 53.4228C77.9821 52.9237 77.9744 52.107 78.4735 51.5985L85.3105 44.6325C85.8095 44.124 86.6263 44.1164 87.1347 44.6154Z" fill="#1E524F"/>
<path fill-rule="evenodd" clip-rule="evenodd" d="M64.0433 40.2471C64.7557 40.2471 65.3333 40.8246 65.3333 41.5371V50.3091C65.3333 51.0215 64.7557 51.5991 64.0433 51.5991C63.3308 51.5991 62.7533 51.0215 62.7533 50.3091V41.5371C62.7533 40.8246 63.3308 40.2471 64.0433 40.2471Z" fill="#1E524F"/>
<path d="M81.2003 72.2391C78.4913 72.2391 76.2983 70.0461 76.2983 67.3371V62.5641C76.2983 59.8551 78.4913 57.6621 81.2003 57.6621C83.9093 57.6621 86.1023 59.8551 86.1023 62.5641V67.3371C86.1023 70.0461 83.9093 72.2391 81.2003 72.2391Z" fill="#F9D1C5"/>
<path fill-rule="evenodd" clip-rule="evenodd" d="M81.2003 58.9521C79.2037 58.9521 77.5883 60.5675 77.5883 62.5641V67.3371C77.5883 69.3336 79.2037 70.9491 81.2003 70.9491C83.1969 70.9491 84.8123 69.3336 84.8123 67.3371V62.5641C84.8123 60.5675 83.1969 58.9521 81.2003 58.9521ZM75.0083 62.5641C75.0083 59.1426 77.7789 56.3721 81.2003 56.3721C84.6217 56.3721 87.3923 59.1426 87.3923 62.5641V67.3371C87.3923 70.7585 84.6217 73.5291 81.2003 73.5291C77.7789 73.5291 75.0083 70.7585 75.0083 67.3371V62.5641Z" fill="#1E524F"/>
<path d="M85.3283 111.714H45.3383V129H85.3283V111.714Z" fill="#8ADBC8"/>
<path d="M84.4252 111.712H46.1122C44.9512 111.712 43.9192 110.68 43.9192 109.519V103.843C43.9192 102.682 44.9512 101.65 46.1122 101.65H84.4252C85.5862 101.65 86.6182 102.682 86.6182 103.843V109.519C86.6182 110.809 85.7152 111.712 84.4252 111.712Z" fill="white"/>
<path fill-rule="evenodd" clip-rule="evenodd" d="M46.1121 102.941C45.6636 102.941 45.2092 103.396 45.2092 103.844V109.52C45.2092 109.969 45.6636 110.423 46.1121 110.423H84.4252C84.7612 110.423 84.9706 110.311 85.0932 110.188C85.2159 110.066 85.3282 109.856 85.3282 109.52V103.844C85.3282 103.396 84.8737 102.941 84.4252 102.941H46.1121ZM42.6292 103.844C42.6292 101.971 44.2387 100.361 46.1121 100.361H84.4252C86.2986 100.361 87.9081 101.971 87.9081 103.844V109.52C87.9081 110.474 87.569 111.361 86.9176 112.013C86.2662 112.664 85.3792 113.003 84.4252 113.003H46.1121C44.2387 113.003 42.6292 111.394 42.6292 109.52V103.844Z" fill="#1E524F"/>
</svg>
