<svg width="129" height="129" viewBox="0 0 129 129" fill="none" xmlns="http://www.w3.org/2000/svg">
<path d="M105.651 46.2471C115.696 46.2471 123.84 38.1036 123.84 28.0581C123.84 18.0126 115.696 9.86914 105.651 9.86914C95.6052 9.86914 87.4617 18.0126 87.4617 28.0581C87.4617 38.1036 95.6052 46.2471 105.651 46.2471Z" fill="#F1595C"/>
<path fill-rule="evenodd" clip-rule="evenodd" d="M105.651 11.1591C96.3177 11.1591 88.7518 18.725 88.7518 28.0581C88.7518 37.3912 96.3177 44.9571 105.651 44.9571C114.984 44.9571 122.55 37.3912 122.55 28.0581C122.55 18.725 114.984 11.1591 105.651 11.1591ZM86.1718 28.0581C86.1718 17.3001 94.8928 8.5791 105.651 8.5791C116.409 8.5791 125.13 17.3001 125.13 28.0581C125.13 38.8161 116.409 47.5371 105.651 47.5371C94.8928 47.5371 86.1718 38.8161 86.1718 28.0581Z" fill="#1E524F"/>
<path d="M60.759 100.555L46.182 122.743H5.15997L33.927 82.3662L60.759 100.555Z" fill="#8ADBC8"/>
<path d="M68.4989 61.9845C68.4989 61.9845 72.1109 57.0825 74.6909 53.4705C78.6899 48.0525 86.0429 53.5995 82.1729 59.0175C80.6249 61.0815 76.1099 67.4025 76.1099 67.4025C76.1099 67.4025 80.7539 60.9525 82.0439 59.2755C85.6559 54.5025 93.0089 60.0495 89.1389 65.2095C87.9779 66.7575 86.1719 69.3375 86.1719 69.3375L75.9809 83.0115C72.2399 88.0425 68.1119 90.7515 64.6289 88.3005L61.2749 93.2025L41.2799 79.0125L44.7629 74.1105C39.8609 70.4985 40.1189 63.9195 40.1189 56.3085C40.1189 52.1805 40.2479 43.2795 40.2479 43.2795C41.1509 37.8615 49.6649 35.7975 50.5679 43.7955C51.0839 48.3105 51.5999 53.5995 51.5999 53.5995L70.1759 28.3155C73.9169 23.1555 81.9149 27.9285 78.0449 33.3465C75.3359 36.9585 61.6619 55.7925 61.6619 55.7925L67.8539 47.2785C71.7239 41.8605 79.3349 47.2785 75.4649 52.4385L68.4989 61.9845Z" fill="#F9D1C5"/>
<path fill-rule="evenodd" clip-rule="evenodd" d="M76.2865 27.9619C74.8022 27.0448 72.6442 27.109 71.2204 29.0729L71.2156 29.0796L52.6395 54.3635C52.323 54.7943 51.7736 54.9853 51.2581 54.8436C50.7427 54.702 50.368 54.2571 50.3161 53.725L51.6 53.5998C50.3161 53.725 50.3161 53.725 50.3161 53.725L50.293 53.4902C50.2779 53.3372 50.2558 53.1134 50.2276 52.8307C50.1713 52.2653 50.0908 51.4644 49.9942 50.5225C49.8009 48.638 49.5435 46.1926 49.2863 43.9422L49.2861 43.9405C49.0861 42.169 48.4864 41.1218 47.8378 40.5373C47.1943 39.9573 46.3811 39.7211 45.5136 39.7924C43.7306 39.939 41.9206 41.3659 41.5363 43.4022L41.5177 44.7524C41.5056 45.6508 41.4895 46.8917 41.4734 48.2614C41.4411 51.0032 41.409 54.2534 41.409 56.3088C41.409 56.67 41.4084 57.0272 41.4079 57.3803C41.403 60.8048 41.3986 63.8474 41.8723 66.481C42.3855 69.3336 43.4325 71.5281 45.5282 73.0722C46.0948 73.4897 46.2222 74.2842 45.8145 74.8579L43.0791 78.7078L60.9514 91.3913L63.5643 87.5723C63.7592 87.2875 64.06 87.0927 64.3996 87.0313C64.7391 86.97 65.0891 87.0472 65.3713 87.2458C66.6331 88.1337 68.005 88.1483 69.6161 87.3159C71.2974 86.4472 73.124 84.6921 74.9458 82.242L85.1263 68.5821L85.196 68.4827L85.4177 68.1675C85.606 67.9002 85.8693 67.5276 86.169 67.1064C86.7666 66.2666 87.5162 65.2235 88.107 64.4358C88.8766 63.4096 89.0369 62.4506 88.8996 61.6533C88.7578 60.8292 88.2785 60.0713 87.5947 59.5278C86.9089 58.9829 86.0798 58.7029 85.3005 58.7512C84.5544 58.7975 83.7581 59.1483 83.0726 60.0542L83.0665 60.0623C82.4351 60.8831 80.9639 62.8976 79.6373 64.7258C78.9769 65.6358 78.3567 66.4936 77.9016 67.1239C77.6741 67.439 77.4878 67.6973 77.3585 67.8767L77.1701 68.1381L77.1629 68.148L77.1605 68.1514L77.1597 68.1525L77.1577 68.1554L77.1569 68.1564L76.11 67.4028C75.0602 66.653 75.0603 66.6529 75.0603 66.6529L75.0611 66.6518L75.0631 66.6489L75.0639 66.6478L75.0665 66.6443L75.0733 66.6346L75.7908 65.6318C76.2386 65.0064 76.8519 64.1511 77.5137 63.231C78.8285 61.4031 80.3453 59.3052 81.1314 58.2565C81.9088 57.1627 82.0711 56.1497 81.9279 55.3238C81.7806 54.4746 81.2933 53.7246 80.6103 53.2138C79.9275 52.7032 79.0875 52.4596 78.2601 52.5688C77.5377 52.6641 76.7328 53.0408 75.987 53.9118L74.3804 56.1134C73.4472 57.4056 72.486 58.7254 71.669 59.8434C71.0555 60.6829 70.5228 61.4093 70.1434 61.9259C69.9537 62.1843 69.8023 62.3902 69.6983 62.5315L69.5481 62.7356L69.541 62.7452L69.5402 62.7463L69.5382 62.7491C69.1162 63.3217 68.3097 63.4457 67.7361 63.025C67.1625 62.6044 67.0376 61.7989 67.4569 61.2243L67.4605 61.2195L67.463 61.2161L72.2928 54.5974C72.7567 53.955 73.2133 53.3201 73.6412 52.721L73.6531 52.7047C73.7516 52.5712 73.8524 52.4427 73.9553 52.3191L74.4329 51.6647C75.2 50.6418 75.3392 49.7045 75.1877 48.9467C75.0305 48.1611 74.5352 47.4443 73.8258 46.9513C73.1175 46.4591 72.2494 46.2281 71.4049 46.3504C70.5843 46.4692 69.6842 46.9358 68.9037 48.0286L68.8973 48.0375L62.7065 56.5498L62.7052 56.5515C62.2863 57.1275 61.4798 57.255 60.9036 56.8363C60.3275 56.4177 60.1996 55.6112 60.6181 55.0349L61.662 55.7928C60.6181 55.0349 60.618 55.035 60.6181 55.0349L61.2111 54.2183C61.5903 53.6962 62.1351 52.9463 62.7973 52.0351C64.1217 50.2128 65.9159 47.7453 67.7947 45.1649C71.54 40.0213 75.6325 34.4141 77.0035 32.5854C77.7783 31.4952 77.8857 30.5599 77.7181 29.8432C77.5434 29.0965 77.0311 28.422 76.2865 27.9619ZM72.0246 43.7404C75.0869 39.5397 77.9838 35.5783 79.077 34.1208L79.0947 34.0966C80.2474 32.4828 80.5901 30.7937 80.2303 29.2555C79.8768 27.7447 78.8814 26.5325 77.6427 25.7671C75.1611 24.2338 71.4514 24.3624 69.134 27.5551C69.1332 27.5563 69.1324 27.5574 69.1316 27.5586L52.5476 50.1312C52.3554 48.2605 52.1027 45.8637 51.8497 43.6502M72.0246 43.7404C73.2213 43.7753 74.3597 44.1806 75.2981 44.8327C76.4914 45.6619 77.4151 46.9286 77.7176 48.4407C77.821 48.9581 77.849 49.4908 77.7963 50.0291C77.8383 50.0225 77.8804 50.0165 77.9225 50.0109C79.4776 49.8057 80.9838 50.2715 82.1554 51.1477C83.3267 52.0236 84.202 53.3377 84.4699 54.883C84.5471 55.3281 84.5726 55.7847 84.5431 56.2472C84.741 56.2122 84.9404 56.1886 85.1407 56.1762C86.635 56.0835 88.0795 56.6178 89.1998 57.5079C90.3219 58.3996 91.181 59.6976 91.4423 61.2157C91.7082 62.7605 91.3363 64.4299 90.171 65.9838C89.6007 66.744 88.8669 67.7649 88.2712 68.6021C87.9743 69.0194 87.7134 69.3886 87.5268 69.6534C87.4336 69.7858 87.3589 69.8921 87.3076 69.9651L87.23 70.0758L87.229 70.0771C87.2217 70.0876 87.2139 70.0984 87.2063 70.1086L77.0161 83.7815C77.016 83.7817 77.0163 83.7813 77.0161 83.7815C75.0971 86.3622 72.9889 88.4773 70.8003 89.6081C68.9223 90.5784 66.9236 90.8413 65.0265 90.0042L62.3396 93.9312C62.1442 94.2167 61.8424 94.4118 61.5018 94.4727C61.1612 94.5335 60.8105 94.455 60.5284 94.2548L40.5334 80.0648C40.2543 79.8667 40.0653 79.5658 40.0081 79.2284C39.9509 78.8909 40.0301 78.5446 40.2284 78.2656L43.0186 74.3386C40.8845 72.3533 39.8437 69.7764 39.3331 66.9378C38.8155 64.0604 38.8215 60.7745 38.8276 57.4085C38.8283 57.0427 38.829 56.676 38.829 56.3088C38.829 54.2362 38.8613 50.9718 38.8935 48.2311C38.9097 46.8596 38.9258 45.6172 38.9379 44.7177L38.9581 43.2612C38.9581 43.2611 38.9581 43.2611 40.248 43.2798M76.11 67.4028L75.0603 66.6529C74.6468 67.2318 74.78 68.0364 75.3582 68.4511C75.9364 68.8657 76.7412 68.7339 77.1569 68.1564L76.11 67.4028Z" fill="#1E524F"/>
<path fill-rule="evenodd" clip-rule="evenodd" d="M54.6959 4.9668C55.4083 4.9668 55.9859 5.54435 55.9859 6.2568V22.3818C55.9859 23.0942 55.4083 23.6718 54.6959 23.6718C53.9834 23.6718 53.4059 23.0942 53.4059 22.3818V6.2568C53.4059 5.54435 53.9834 4.9668 54.6959 4.9668Z" fill="#1E524F"/>
<path fill-rule="evenodd" clip-rule="evenodd" d="M35.8528 11.2772C36.3566 10.7735 37.1734 10.7735 37.6771 11.2772L49.0291 22.6292C49.5329 23.133 49.5329 23.9498 49.0291 24.4536C48.5254 24.9574 47.7086 24.9574 47.2048 24.4536L35.8528 13.1016C35.349 12.5978 35.349 11.781 35.8528 11.2772Z" fill="#1E524F"/>
<path fill-rule="evenodd" clip-rule="evenodd" d="M73.6683 11.2772C74.1721 11.781 74.1721 12.5978 73.6683 13.1016L62.3163 24.4536C61.8125 24.9574 60.9957 24.9574 60.492 24.4536C59.9882 23.9498 59.9882 23.133 60.492 22.6292L71.844 11.2772C72.3477 10.7735 73.1645 10.7735 73.6683 11.2772Z" fill="#1E524F"/>
<path d="M99.7169 27.5407C100.714 27.5407 101.523 26.7321 101.523 25.7347C101.523 24.7373 100.714 23.9287 99.7169 23.9287C98.7195 23.9287 97.9109 24.7373 97.9109 25.7347C97.9109 26.7321 98.7195 27.5407 99.7169 27.5407Z" fill="#1E524F"/>
<path d="M111.972 27.5407C112.969 27.5407 113.778 26.7321 113.778 25.7347C113.778 24.7373 112.969 23.9287 111.972 23.9287C110.974 23.9287 110.166 24.7373 110.166 25.7347C110.166 26.7321 110.974 27.5407 111.972 27.5407Z" fill="#1E524F"/>
<path fill-rule="evenodd" clip-rule="evenodd" d="M112.651 31.4765C113.257 31.8515 113.444 32.6466 113.069 33.2524L111.972 32.5734C113.069 33.2524 113.069 33.253 113.068 33.2536L113.067 33.2548L113.066 33.2575L113.062 33.2636L113.052 33.2787C113.045 33.2901 113.036 33.3041 113.025 33.3205C113.003 33.3533 112.974 33.3958 112.937 33.4466C112.863 33.5481 112.759 33.6833 112.623 33.8406C112.352 34.1547 111.948 34.562 111.399 34.9664C110.291 35.7828 108.609 36.5724 106.296 36.5724C103.993 36.5724 102.205 35.79 101 35.0114C100.399 34.6226 99.9377 34.2321 99.6221 33.9331C99.4639 33.7833 99.3412 33.6554 99.2544 33.5606C99.211 33.5132 99.1766 33.4739 99.1511 33.4442C99.1383 33.4294 99.1278 33.4169 99.1195 33.407L99.1088 33.394L99.1047 33.389L99.103 33.3869L99.1022 33.386C99.1018 33.3855 99.1015 33.385 100.104 32.5734L99.1015 33.385C98.6532 32.8313 98.7387 32.019 99.2925 31.5707C99.8442 31.1241 100.653 31.2074 101.102 31.7557L101.108 31.7634C101.117 31.7734 101.134 31.7923 101.158 31.819C101.207 31.8723 101.287 31.9561 101.396 32.0602C101.617 32.2691 101.954 32.5559 102.401 32.8444C103.292 33.4203 104.6 33.9924 106.296 33.9924C107.982 33.9924 109.138 33.4274 109.869 32.8894C110.239 32.6165 110.504 32.3465 110.672 32.1527C110.756 32.0561 110.814 31.9796 110.848 31.9329C110.864 31.9097 110.875 31.8939 110.88 31.8871C110.881 31.8859 110.881 31.8851 110.882 31.8844C110.882 31.8844 110.882 31.8844 110.882 31.8844C111.259 31.2866 112.049 31.1036 112.651 31.4765Z" fill="#1E524F"/>
<path d="M111.069 78.2396C116.769 78.2396 121.389 73.6192 121.389 67.9196C121.389 62.22 116.769 57.5996 111.069 57.5996C105.37 57.5996 100.749 62.22 100.749 67.9196C100.749 73.6192 105.37 78.2396 111.069 78.2396Z" fill="white"/>
<path fill-rule="evenodd" clip-rule="evenodd" d="M111.069 58.8896C106.082 58.8896 102.039 62.9324 102.039 67.9196C102.039 72.9067 106.082 76.9496 111.069 76.9496C116.056 76.9496 120.099 72.9067 120.099 67.9196C120.099 62.9324 116.056 58.8896 111.069 58.8896ZM99.4591 67.9196C99.4591 61.5075 104.657 56.3096 111.069 56.3096C117.481 56.3096 122.679 61.5075 122.679 67.9196C122.679 74.3316 117.481 79.5296 111.069 79.5296C104.657 79.5296 99.4591 74.3316 99.4591 67.9196Z" fill="#1E524F"/>
<path d="M107.715 67.6607C108.285 67.6607 108.747 67.1986 108.747 66.6287C108.747 66.0587 108.285 65.5967 107.715 65.5967C107.145 65.5967 106.683 66.0587 106.683 66.6287C106.683 67.1986 107.145 67.6607 107.715 67.6607Z" fill="#1E524F"/>
<path d="M114.681 67.6607C115.251 67.6607 115.713 67.1986 115.713 66.6287C115.713 66.0587 115.251 65.5967 114.681 65.5967C114.111 65.5967 113.649 66.0587 113.649 66.6287C113.649 67.1986 114.111 67.6607 114.681 67.6607Z" fill="#1E524F"/>
<path fill-rule="evenodd" clip-rule="evenodd" d="M115.331 69.3849C115.947 69.7439 116.155 70.5338 115.796 71.1492L114.681 70.4992C115.796 71.1492 115.795 71.1498 115.795 71.1504L115.794 71.1517L115.792 71.1544L115.789 71.1601L115.781 71.1734C115.775 71.1831 115.768 71.1942 115.76 71.2068C115.744 71.2319 115.724 71.2629 115.699 71.2987C115.65 71.3702 115.582 71.462 115.495 71.5669C115.32 71.7762 115.064 72.0424 114.713 72.3052C114 72.8401 112.927 73.3372 111.456 73.3372C109.993 73.3372 108.877 72.8459 108.128 72.3465C107.756 72.0985 107.474 71.8482 107.279 71.6532C107.181 71.5554 107.104 71.4705 107.048 71.4052C107.02 71.3726 106.997 71.3447 106.98 71.3224L106.957 71.2933L106.948 71.2821L106.944 71.2774L106.943 71.2752L106.942 71.2742C106.942 71.2737 106.941 71.2732 107.973 70.4992L106.941 71.2732C106.514 70.7032 106.629 69.8947 107.199 69.4672C107.765 69.043 108.566 69.1535 108.995 69.7123C108.997 69.7146 109.001 69.7193 109.007 69.7262C109.024 69.7456 109.056 69.7816 109.103 69.8289C109.198 69.9242 109.351 70.0609 109.56 70.1998C109.972 70.4745 110.598 70.7572 111.456 70.7572C112.307 70.7572 112.847 70.4803 113.165 70.2412C113.331 70.117 113.445 69.9962 113.513 69.9152C113.546 69.875 113.567 69.8459 113.576 69.8327C113.578 69.8308 113.579 69.8292 113.58 69.828C113.944 69.2291 114.723 69.0301 115.331 69.3849Z" fill="#1E524F"/>
<path d="M92.8801 96.9437C96.7273 96.9437 99.8461 93.8249 99.8461 89.9777C99.8461 86.1305 96.7273 83.0117 92.8801 83.0117C89.0329 83.0117 85.9141 86.1305 85.9141 89.9777C85.9141 93.8249 89.0329 96.9437 92.8801 96.9437Z" fill="white"/>
<path fill-rule="evenodd" clip-rule="evenodd" d="M92.8801 84.3017C89.7454 84.3017 87.2041 86.8429 87.2041 89.9777C87.2041 93.1124 89.7454 95.6537 92.8801 95.6537C96.0149 95.6537 98.5562 93.1124 98.5562 89.9777C98.5562 86.8429 96.0149 84.3017 92.8801 84.3017ZM84.6241 89.9777C84.6241 85.418 88.3205 81.7217 92.8801 81.7217C97.4398 81.7217 101.136 85.418 101.136 89.9777C101.136 94.5373 97.4398 98.2337 92.8801 98.2337C88.3205 98.2337 84.6241 94.5373 84.6241 89.9777Z" fill="#1E524F"/>
<path d="M90.5581 89.7199C90.9856 89.7199 91.3321 89.3733 91.3321 88.9459C91.3321 88.5184 90.9856 88.1719 90.5581 88.1719C90.1306 88.1719 89.7841 88.5184 89.7841 88.9459C89.7841 89.3733 90.1306 89.7199 90.5581 89.7199Z" fill="#1E524F"/>
<path d="M95.3308 89.7199C95.7582 89.7199 96.1048 89.3733 96.1048 88.9459C96.1048 88.5184 95.7582 88.1719 95.3308 88.1719C94.9033 88.1719 94.5568 88.5184 94.5568 88.9459C94.5568 89.3733 94.9033 89.7199 95.3308 89.7199Z" fill="#1E524F"/>
<path fill-rule="evenodd" clip-rule="evenodd" d="M96.0144 90.5595C96.6186 90.9371 96.8023 91.733 96.4247 92.3372L95.3307 91.6535C96.4247 92.3372 96.4243 92.3377 96.4239 92.3383L96.4232 92.3395L96.4216 92.342L96.4183 92.3472L96.4108 92.3588L96.3923 92.3868C96.3784 92.4074 96.3613 92.4319 96.3409 92.4599C96.3 92.5156 96.2456 92.5854 96.1766 92.6642C96.0392 92.8212 95.8405 93.0185 95.5735 93.2127C95.0289 93.6088 94.22 93.9755 93.1377 93.9755C92.0681 93.9755 91.2236 93.6176 90.6557 93.2681C90.3715 93.0933 90.1502 92.9168 89.995 92.7789C89.917 92.7096 89.8546 92.649 89.8082 92.6017C89.785 92.5781 89.7656 92.5576 89.7503 92.541L89.7301 92.519L89.7223 92.5102L89.7189 92.5063L89.7174 92.5046L89.7166 92.5037C89.7163 92.5033 89.7159 92.5029 90.6867 91.6535L89.7159 92.5029C89.2468 91.9668 89.3011 91.1518 89.8373 90.6826C90.3688 90.2175 91.1744 90.2669 91.6454 90.7903C91.6462 90.7912 91.6474 90.7924 91.6489 90.7939C91.6579 90.8031 91.6782 90.8231 91.7091 90.8506C91.7715 90.9061 91.8727 90.9877 92.0078 91.0708C92.2784 91.2373 92.6594 91.3955 93.1377 91.3955C93.6035 91.3955 93.8911 91.2461 94.056 91.1262C94.1437 91.0624 94.203 91.0017 94.2349 90.9652C94.2456 90.953 94.2528 90.9441 94.2564 90.9394C94.6414 90.3595 95.4205 90.1883 96.0144 90.5595Z" fill="#1E524F"/>
<path d="M57.0182 103.653L32.3792 86.2377C31.3472 85.5927 31.2182 84.1737 31.8632 83.2707L35.7332 77.7237C36.3782 76.6917 37.7972 76.5627 38.7002 77.2077L63.4682 94.6227C64.5002 95.2677 64.6292 96.6867 63.9842 97.5897L60.1142 103.137C59.3402 104.04 58.0502 104.298 57.0182 103.653Z" fill="white"/>
<path fill-rule="evenodd" clip-rule="evenodd" d="M37.3076 78.1132C37.0854 78.1459 36.9245 78.2516 36.8271 78.4075C36.8156 78.4259 36.8036 78.4441 36.7911 78.4619L32.913 84.0206C32.7948 84.1861 32.7338 84.427 32.7686 84.6633C32.8013 84.8855 32.907 85.0464 33.0629 85.1439C33.0835 85.1568 33.1038 85.1703 33.1237 85.1844L57.7271 102.574C58.158 102.827 58.714 102.752 59.099 102.337L62.9344 96.8399C63.0526 96.6745 63.1135 96.4336 63.0788 96.1972C63.0461 95.975 62.9404 95.8141 62.7845 95.7167C62.7647 95.7043 62.7453 95.6915 62.7262 95.678L37.9504 78.2575C37.7849 78.1393 37.544 78.0784 37.3076 78.1132ZM39.4456 76.1549C38.0496 75.1615 35.769 75.2741 34.6587 77.0093L30.8088 82.5276C29.8177 83.9227 29.9302 86.1993 31.661 87.3098L56.2736 104.706C56.2935 104.72 56.3138 104.734 56.3345 104.747C57.9509 105.757 59.9387 105.324 61.0936 103.976C61.1215 103.944 61.1477 103.91 61.1721 103.875L65.0386 98.333C66.0299 96.9374 65.9171 94.66 64.1849 93.5498L39.45 76.1581C39.4485 76.157 39.447 76.156 39.4456 76.1549Z" fill="#1E524F"/>
</svg>
