<svg width="154" height="42" viewBox="0 0 154 42" fill="none" xmlns="http://www.w3.org/2000/svg">
<path d="M154 41L113 41L113 28L143.5 28L154 41Z" fill="#8ADBC8"/>
<path d="M154 15L113 15L113 28L143.5 28L154 15Z" fill="#8ADBC8"/>
<path d="M0 15L41 15L41 28L10.5 28L0 15Z" fill="#8ADBC8"/>
<path d="M0 41L41 41L41 28L10.5 28L0 41Z" fill="#8ADBC8"/>
<path d="M113 41.5L133 35.5L133 1L113 0.999998L113 41.5Z" fill="#1E524F"/>
<path d="M41 41.5L21 35.5L21 1L41 1L41 41.5Z" fill="#1E524F"/>
<rect x="21" width="112" height="35" fill="#4EC2A7"/>
<path d="M50.152 19.057L42.676 10.3H39.526V25H43.096V16.264L50.572 25H53.722V10.3H50.152V19.057ZM63.5165 25.294C67.3175 25.294 70.0685 22.9 70.0685 19.015V10.3H66.4985V19.057C66.4985 21.199 65.2595 22.186 63.5165 22.186C61.7735 22.186 60.5345 21.199 60.5345 19.057V10.3H56.9645V19.015C56.9645 22.9 59.7155 25.294 63.5165 25.294ZM76.8696 21.892V19.099H83.3796V15.991H76.8696V13.408H83.5686V10.3H73.2996V25H83.6526V21.892H76.8696ZM99.663 10.3H95.82L92.376 19.624L88.932 10.3H85.089L91.095 25H93.657L99.663 10.3ZM108.267 10.006C103.458 10.006 100.455 13.429 100.455 17.65C100.455 21.871 103.458 25.294 108.267 25.294C113.076 25.294 116.1 21.871 116.1 17.65C116.1 13.429 113.076 10.006 108.267 10.006ZM108.267 22.228C105.453 22.228 104.025 19.981 104.025 17.65C104.025 15.298 105.453 13.072 108.267 13.072C111.081 13.072 112.53 15.298 112.53 17.65C112.53 19.981 111.081 22.228 108.267 22.228Z" fill="white"/>
</svg>
