<svg width="129" height="129" viewBox="0 0 129 129" fill="none" xmlns="http://www.w3.org/2000/svg">
<path fill-rule="evenodd" clip-rule="evenodd" d="M58.2434 2.45508C58.9558 2.45508 59.5334 3.03263 59.5334 3.74508V19.8701C59.5334 20.5825 58.9558 21.1601 58.2434 21.1601C57.5309 21.1601 56.9534 20.5825 56.9534 19.8701V3.74508C56.9534 3.03263 57.5309 2.45508 58.2434 2.45508Z" fill="#1E524F"/>
<path fill-rule="evenodd" clip-rule="evenodd" d="M39.3997 8.7665C39.9035 8.26273 40.7202 8.26273 41.224 8.7665L52.576 20.1185C53.0798 20.6223 53.0798 21.4391 52.576 21.9428C52.0722 22.4466 51.2555 22.4466 50.7517 21.9428L39.3997 10.5908C38.8959 10.0871 38.8959 9.27028 39.3997 8.7665Z" fill="#1E524F"/>
<path fill-rule="evenodd" clip-rule="evenodd" d="M77.2152 8.7665C77.719 9.27028 77.719 10.0871 77.2152 10.5908L65.8632 21.9428C65.3594 22.4466 64.5426 22.4466 64.0388 21.9428C63.5351 21.4391 63.5351 20.6223 64.0388 20.1185L75.3908 8.7665C75.8946 8.26273 76.7114 8.26273 77.2152 8.7665Z" fill="#1E524F"/>
<path d="M78.367 33.9307L59.404 28.6417C58.759 28.5127 58.114 28.5127 57.598 28.6417L25.477 37.6717C24.058 38.0587 23.026 39.4777 23.026 41.0257V79.3387C23.026 97.9147 49.471 115.33 56.695 119.716C57.856 120.361 59.146 120.361 60.307 119.716C67.402 115.201 93.589 97.5277 93.589 79.2097C93.589 70.6957 93.589 62.9557 93.589 56.6347V40.6387C93.589 39.0907 92.557 37.6717 91.009 37.2847L78.367 33.9307Z" fill="#8ADBC8"/>
<path fill-rule="evenodd" clip-rule="evenodd" d="M57.2852 27.3901C58.025 27.2052 58.868 27.2189 59.657 27.3767C59.6885 27.383 59.7197 27.3904 59.7506 27.3991L78.7057 32.6859L91.3316 36.0356C93.48 36.5775 94.879 38.5351 94.879 40.6386V79.2096C94.879 88.932 87.9762 98.2574 80.5108 105.561C72.9822 112.926 64.5739 118.529 60.9996 120.804C60.978 120.818 60.9559 120.831 60.9335 120.843C59.3829 121.705 57.6192 121.705 56.0685 120.843C56.0541 120.835 56.0397 120.827 56.0255 120.818C52.3779 118.604 43.8699 113.097 36.2575 105.778C28.7067 98.5192 21.736 89.1937 21.736 79.3386V41.0256C21.736 38.9457 23.11 36.9828 25.1323 36.4285L57.2489 27.3998C57.2609 27.3964 57.273 27.3932 57.2852 27.3901ZM57.9262 29.8894L25.8165 38.9162C25.0037 39.1379 24.316 40.0114 24.316 41.0256V79.3386C24.316 88.0596 30.5678 96.7295 38.0456 103.918C45.4457 111.033 53.7522 116.418 57.3413 118.599C58.0966 119.011 58.8942 119.013 59.6499 118.605C63.1902 116.35 71.3924 110.872 78.7065 103.717C86.1083 96.4754 92.299 87.8053 92.299 79.2096V40.6386C92.299 39.6493 91.6382 38.7716 90.6962 38.5361L90.6782 38.5315L78.0204 35.1733L59.1072 29.8981C58.6326 29.8089 58.2099 29.8217 57.9262 29.8894Z" fill="#1E524F"/>
<path d="M58.5081 39.1328L33.4949 46.6096V77.1964C33.4949 93.3735 58.5081 108.327 58.5081 108.327C58.5081 108.327 83.2494 93.1016 83.2494 77.1964C83.2494 61.2913 83.2494 46.4737 83.2494 46.4737L58.5081 39.1328Z" fill="white"/>
<path fill-rule="evenodd" clip-rule="evenodd" d="M58.1386 37.8968C58.3788 37.825 58.6347 37.8248 58.875 37.8961L83.6163 45.2369C84.1639 45.3994 84.5394 45.9025 84.5394 46.4736H83.2494C84.5394 46.4736 84.5394 46.4735 84.5394 46.4736V77.1964C84.5394 81.504 82.8676 85.6786 80.4735 89.4605C78.0754 93.2488 74.8997 96.7269 71.7607 99.6675C68.6171 102.613 65.479 105.047 63.1294 106.745C61.9535 107.595 60.9722 108.262 60.2827 108.718C59.9379 108.946 59.6659 109.121 59.4788 109.24C59.3853 109.3 59.3129 109.345 59.2633 109.376L59.2061 109.412L59.1907 109.422L59.1849 109.425C59.1845 109.425 59.1841 109.426 58.5081 108.327C57.8461 109.434 57.8458 109.434 57.8453 109.434L57.844 109.433L57.8395 109.43L57.8238 109.421L57.7659 109.386C57.7157 109.355 57.6425 109.31 57.5479 109.252C57.3586 109.135 57.0835 108.962 56.7348 108.737C56.0375 108.288 55.0452 107.631 53.856 106.792C51.48 105.115 48.3066 102.705 45.1274 99.7768C41.9529 96.8525 38.741 93.3819 36.3155 89.5789C33.8933 85.781 32.2048 81.5717 32.2048 77.1964V46.6096C32.2048 46.0394 32.5791 45.5369 33.1254 45.3736L58.1386 37.8968ZM58.5081 108.327L57.8453 109.434C58.2581 109.68 58.7754 109.677 59.1849 109.425L58.5081 108.327ZM58.4985 106.803C58.6069 106.732 58.7276 106.653 58.8596 106.566C59.5232 106.127 60.4748 105.48 61.6184 104.654C63.9078 103 66.9551 100.634 69.9968 97.7847C73.0431 94.9309 76.0527 91.6203 78.2936 88.0805C80.5385 84.5343 81.9594 80.8413 81.9594 77.1964V47.4365L58.5094 40.4788L34.7848 47.5704V77.1964C34.7848 80.9095 36.223 84.6359 38.4908 88.1916C40.7552 91.7421 43.7967 95.0431 46.8755 97.8793C49.9496 100.711 53.0295 103.051 55.3435 104.684C56.4993 105.499 57.4611 106.136 58.1317 106.568C58.266 106.655 58.3885 106.733 58.4985 106.803Z" fill="#1E524F"/>
<path d="M100.297 57.7961C110.77 57.7961 119.26 49.3061 119.26 38.8331C119.26 28.3601 110.77 19.8701 100.297 19.8701C89.8243 19.8701 81.3342 28.3601 81.3342 38.8331C81.3342 49.3061 89.8243 57.7961 100.297 57.7961Z" fill="white"/>
<path fill-rule="evenodd" clip-rule="evenodd" d="M100.297 21.1601C90.5367 21.1601 82.6243 29.0726 82.6243 38.8331C82.6243 48.5936 90.5367 56.5061 100.297 56.5061C110.058 56.5061 117.97 48.5936 117.97 38.8331C117.97 29.0725 110.058 21.1601 100.297 21.1601ZM80.0443 38.8331C80.0443 27.6477 89.1118 18.5801 100.297 18.5801C111.483 18.5801 120.55 27.6477 120.55 38.8331C120.55 50.0185 111.483 59.0861 100.297 59.0861C89.1118 59.0861 80.0443 50.0185 80.0443 38.8331Z" fill="#1E524F"/>
<path fill-rule="evenodd" clip-rule="evenodd" d="M109.719 31.0801C110.225 31.5813 110.229 32.3981 109.728 32.9045L97.3443 45.4175C97.1028 45.6615 96.774 45.7991 96.4308 45.8C96.0875 45.8009 95.758 45.6649 95.5152 45.4222L90.8712 40.7782C90.3675 40.2744 90.3675 39.4576 90.8712 38.9539C91.375 38.4501 92.1918 38.4501 92.6956 38.9539L96.4227 42.681L107.895 31.0896C108.396 30.5832 109.212 30.579 109.719 31.0801Z" fill="#F1595C"/>
<path d="M42.2473 119.975L29.0893 124.877C28.5733 125.135 27.9283 125.135 27.4123 124.877L13.2223 119.975C10.1263 118.685 9.73926 116.879 9.73926 115.073V94.5619C9.73926 92.7559 11.2873 91.3369 13.2223 91.3369H42.3763C44.3113 91.3369 45.8593 92.7559 45.8593 94.5619V115.073C45.7303 117.395 44.3113 119.201 42.2473 119.975Z" fill="#F1595C"/>
<path fill-rule="evenodd" clip-rule="evenodd" d="M13.2222 92.6269C11.9005 92.6269 11.0292 93.5636 11.0292 94.5619V115.073C11.0292 115.897 11.1225 116.527 11.4371 117.073C11.7391 117.596 12.3419 118.204 13.6825 118.769L27.8334 123.658C27.8867 123.676 27.9387 123.698 27.9891 123.723C28.142 123.799 28.3595 123.799 28.5123 123.723C28.5535 123.702 28.5957 123.684 28.6389 123.668L41.7943 118.767C41.7948 118.767 41.7952 118.767 41.7957 118.766C43.3887 118.169 44.4582 116.809 44.5692 115.035V94.5619C44.5692 93.5636 43.6979 92.6269 42.3762 92.6269H13.2222ZM8.44922 94.5619C8.44922 91.9482 10.6739 90.0469 13.2222 90.0469H42.3762C44.9245 90.0469 47.1492 91.9482 47.1492 94.5619V115.073C47.1492 115.097 47.1486 115.121 47.1472 115.144C46.9887 117.997 45.2244 120.236 42.7002 121.183L42.6976 121.184L29.5953 126.065C28.7589 126.456 27.7606 126.459 26.9221 126.072L12.801 121.194C12.7757 121.185 12.7507 121.176 12.7261 121.166C10.9958 120.445 9.86519 119.511 9.20234 118.362C8.54945 117.23 8.44922 116.055 8.44922 115.073V94.5619Z" fill="#1E524F"/>
<path d="M67.7891 78.0497C67.9181 78.8237 67.2731 79.4687 66.4991 79.4687H58.7591H51.4061C50.6321 79.4687 49.9871 78.8237 50.1161 78.0497C50.7611 73.6637 54.5021 70.1807 59.0171 70.1807C63.4031 70.1807 67.1441 73.6637 67.7891 78.0497Z" fill="#F1595C"/>
<path d="M58.8884 67.8572C61.3819 67.8572 63.4034 65.8357 63.4034 63.3421C63.4034 60.8486 61.3819 58.8271 58.8884 58.8271C56.3948 58.8271 54.3734 60.8486 54.3734 63.3421C54.3734 65.8357 56.3948 67.8572 58.8884 67.8572Z" fill="#F1595C"/>
<path fill-rule="evenodd" clip-rule="evenodd" d="M58.1319 44.3059C58.3725 44.234 58.6289 44.234 58.8695 44.3057L78.3485 50.1107C78.8953 50.2736 79.2701 50.7764 79.2701 51.347H77.9801C79.2701 51.347 79.2701 51.3469 79.2701 51.347V75.986C79.2701 79.5034 77.9321 82.9011 76.0328 85.9639C74.1298 89.0326 71.6134 91.8459 69.1325 94.2201C66.6471 96.5984 64.1672 98.5647 62.311 99.9353C61.3818 100.621 60.6061 101.16 60.0605 101.529C59.7877 101.714 59.5722 101.856 59.4236 101.952C59.3494 102.001 59.2918 102.038 59.2521 102.063L59.2062 102.092L59.1936 102.1L59.1888 102.103C59.1884 102.104 59.188 102.104 58.5011 101.012C57.8342 102.116 57.8339 102.116 57.8335 102.116L57.8285 102.113L57.8157 102.105L57.7688 102.076C57.7284 102.051 57.6696 102.015 57.5939 101.968C57.4423 101.873 57.2225 101.734 56.9442 101.553C56.3878 101.191 55.5965 100.662 54.6487 99.9866C52.7555 98.6384 50.2257 96.7005 47.6903 94.3463C45.1595 91.9962 42.5917 89.2025 40.6495 86.1378C38.7107 83.0784 37.3451 79.6694 37.3451 76.1149V51.476C37.3451 50.9057 37.7195 50.4031 38.2659 50.2399L58.1319 44.3059ZM58.5011 101.012L57.8335 102.116C58.2508 102.368 58.7761 102.363 59.1888 102.103L58.5011 101.012ZM58.4872 99.4782C58.5283 99.4506 58.5711 99.4218 58.6156 99.3917C59.1354 99.0404 59.8815 98.5221 60.7784 97.8598C62.5745 96.5335 64.9643 94.6378 67.3487 92.3561C69.7375 90.0701 72.0909 87.4251 73.8402 84.6042C75.5932 81.7773 76.6901 78.854 76.6901 75.986V52.3086L58.5015 46.8881L39.9251 52.4369V76.1149C39.9251 79.0105 41.0428 81.9386 42.8288 84.7568C44.6114 87.5697 47.0102 90.1939 49.4459 92.4556C51.877 94.7131 54.3137 96.5807 56.1453 97.8851C57.0599 98.5364 57.8208 99.0452 58.3507 99.3898C58.3981 99.4206 58.4436 99.4501 58.4872 99.4782Z" fill="#1E524F"/>
<path fill-rule="evenodd" clip-rule="evenodd" d="M27.6704 81.79C23.7686 81.79 20.8334 84.6617 20.8334 87.982V91.336C20.8334 92.0484 20.2558 92.626 19.5434 92.626C18.8309 92.626 18.2534 92.0484 18.2534 91.336V87.982C18.2534 83.0462 22.5421 79.21 27.6704 79.21C32.7986 79.21 37.0874 83.0462 37.0874 87.982V91.336C37.0874 92.0484 36.5098 92.626 35.7974 92.626C35.0849 92.626 34.5074 92.0484 34.5074 91.336V87.982C34.5074 84.6617 31.5721 81.79 27.6704 81.79Z" fill="#1E524F"/>
<path d="M27.6699 107.074C29.5935 107.074 31.1529 105.63 31.1529 103.849C31.1529 102.068 29.5935 100.624 27.6699 100.624C25.7463 100.624 24.1869 102.068 24.1869 103.849C24.1869 105.63 25.7463 107.074 27.6699 107.074Z" fill="#1E524F"/>
<path d="M27.9283 114.17H27.1543C26.5093 114.17 25.9933 113.654 25.9933 113.009V106.043C25.9933 105.398 26.5093 104.882 27.1543 104.882H27.9283C28.5733 104.882 29.0893 105.398 29.0893 106.043V113.009C28.9603 113.654 28.5733 114.17 27.9283 114.17Z" fill="#1E524F"/>
</svg>
